<svg height="494" width="720" xmlns="http://www.w3.org/2000/svg">
<rect height="494" fill="#555" width="720"></rect>
<text fill="#7f7" font-family="Courier New" font-size="12" xml:space="preserve">
<tspan x="10" y="26">6 megabytes installed</tspan>
<tspan x="10" y="42"></tspan>
<tspan x="10" y="58">node_modules</tspan>
<tspan x="10" y="74">└─┬ mongoose-rbac@0.1.3 </tspan>
<tspan x="10" y="90">  ├── async@0.2.10 </tspan>
<tspan x="10" y="106">  └─┬ mongoose@3.8.40 </tspan>
<tspan x="10" y="122">    ├── hooks@0.2.1 </tspan>
<tspan x="10" y="138">    ├─┬ mongodb@1.4.38 </tspan>
<tspan x="10" y="154">    │ ├─┬ bson@0.2.22 </tspan>
<tspan x="10" y="170">    │ │ └── nan@1.8.4 </tspan>
<tspan x="10" y="186">    │ ├── kerberos@0.0.11 </tspan>
<tspan x="10" y="202">    │ └─┬ readable-stream@2.2.9 </tspan>
<tspan x="10" y="218">    │   ├── buffer-shims@1.0.0 </tspan>
<tspan x="10" y="234">    │   ├── core-util-is@1.0.2 </tspan>
<tspan x="10" y="250">    │   ├── inherits@2.0.3 </tspan>
<tspan x="10" y="266">    │   ├── isarray@1.0.0 </tspan>
<tspan x="10" y="282">    │   ├── process-nextick-args@1.0.7 </tspan>
<tspan x="10" y="298">    │   ├── string_decoder@1.0.0 </tspan>
<tspan x="10" y="314">    │   └── util-deprecate@1.0.2 </tspan>
<tspan x="10" y="330">    ├── mpath@0.1.1 </tspan>
<tspan x="10" y="346">    ├── mpromise@0.4.3 </tspan>
<tspan x="10" y="362">    ├─┬ mquery@1.10.0 </tspan>
<tspan x="10" y="378">    │ ├── bluebird@2.10.2 </tspan>
<tspan x="10" y="394">    │ └─┬ debug@2.2.0 </tspan>
<tspan x="10" y="410">    │   └── ms@0.7.1 </tspan>
<tspan x="10" y="426">    ├── ms@0.1.0 </tspan>
<tspan x="10" y="442">    ├── muri@1.1.0 </tspan>
<tspan x="10" y="458">    ├── regexp-clone@0.0.1 </tspan>
<tspan x="10" y="474">    └── sliced@0.0.5</tspan>
</text>
</svg>
